<?xml version="1.0" encoding="UTF-8" standalone="no"?>
<!-- Created with Inkscape (http://www.inkscape.org/) -->

<svg
   width="512"
   height="512"
   viewBox="0 0 512 512"
   version="1.1"
   id="svg1"
   xml:space="preserve"
   sodipodi:docname="logo.svg"
   inkscape:version="1.4.2 (ebf0e940d0, 2025-05-08)"
   xmlns:inkscape="http://www.inkscape.org/namespaces/inkscape"
   xmlns:sodipodi="http://sodipodi.sourceforge.net/DTD/sodipodi-0.dtd"
   xmlns:xlink="http://www.w3.org/1999/xlink"
   xmlns="http://www.w3.org/2000/svg"
   xmlns:svg="http://www.w3.org/2000/svg"><sodipodi:namedview
     id="namedview1"
     pagecolor="#ffffff"
     bordercolor="#000000"
     borderopacity="0.25"
     inkscape:showpageshadow="2"
     inkscape:pageopacity="0.0"
     inkscape:pagecheckerboard="0"
     inkscape:deskcolor="#d1d1d1"
     inkscape:document-units="px"
     inkscape:zoom="0.30882012"
     inkscape:cx="-642.76899"
     inkscape:cy="375.62319"
     inkscape:window-width="1536"
     inkscape:window-height="891"
     inkscape:window-x="0"
     inkscape:window-y="0"
     inkscape:window-maximized="1"
     inkscape:current-layer="g112" /><defs
     id="defs1"><linearGradient
       id="swatch4"
       inkscape:swatch="solid"
       inkscape:label="accent"><stop
         style="stop-color:#f2e700;stop-opacity:1;"
         offset="0"
         id="stop4" /></linearGradient><linearGradient
       id="swatch3"
       inkscape:swatch="solid"
       inkscape:label="border"
       gradientTransform="translate(178.66593,3.0354781)"><stop
         style="stop-color:#000000;stop-opacity:1;"
         offset="0"
         id="stop3" /></linearGradient><linearGradient
       inkscape:collect="always"
       xlink:href="#swatch3"
       id="linearGradient3"
       x1="1.019001"
       y1="556.08801"
       x2="91.019001"
       y2="556.08801"
       gradientUnits="userSpaceOnUse" /><linearGradient
       inkscape:collect="always"
       xlink:href="#swatch4"
       id="linearGradient4"
       x1="72"
       y1="308.56"
       x2="609"
       y2="308.56"
       gradientUnits="userSpaceOnUse" /><linearGradient
       inkscape:collect="always"
       xlink:href="#swatch3"
       id="linearGradient96"
       gradientUnits="userSpaceOnUse" /><linearGradient
       inkscape:collect="always"
       xlink:href="#swatch3"
       id="linearGradient97"
       gradientUnits="userSpaceOnUse" /><linearGradient
       inkscape:collect="always"
       xlink:href="#swatch3"
       id="linearGradient98"
       gradientUnits="userSpaceOnUse" /><linearGradient
       inkscape:collect="always"
       xlink:href="#swatch3"
       id="linearGradient100"
       gradientUnits="userSpaceOnUse" /></defs><g
     inkscape:label="Layer 1"
     inkscape:groupmode="layer"
     id="layer1"
     style="display:inline"><g
       id="g2"
       transform="matrix(8.4583019,0,0,8.4583019,-0.0081492,-0.35781847)"
       style="display:none;stroke-width:0.999964;stroke-dasharray:none"><path
         d="M 30.295,9.0586 5.151,52.6126 H 55.44 L 30.295,9.0586"
         style="display:inline;fill:#f2e700;stroke-width:0.999964;stroke-dasharray:none"
         id="path1-3" /><path
         d="m 29.932,19.858 6.2807,3.3256 -2.14,3.724 -4.2756,1.0652 -3.6058,-5.9844 z"
         style="fill-rule:evenodd;stroke:#000000;stroke-width:0.999964;stroke-linejoin:bevel;stroke-miterlimit:10;stroke-dasharray:none"
         id="path2-6" /><path
         d="m 25.922,29.038 0.80466,1.4636 -0.80466,2.6588 -2.6706,0.26848 -1.7355,-1.9962 0.13049,-1.5979 z"
         style="fill-rule:evenodd;stroke:#000000;stroke-width:0.999964;stroke-linejoin:bevel;stroke-miterlimit:10;stroke-dasharray:none"
         id="path3-7" /><path
         d="m 27.392,34.226 1.605,0.13423 0.53499,1.4636 -1.605,2.1261 -1.6006,-0.13423 -0.26967,-2.793 z"
         style="fill-rule:evenodd;stroke:#000000;stroke-width:0.999964;stroke-linejoin:bevel;stroke-miterlimit:10;stroke-dasharray:none"
         id="path4-5" /><path
         d="m 20.176,44.467 0.4045,1.4636 -0.26966,1.5979 -2.5401,1.0652 -1.0656,-1.1995 0.66547,-2.6588 z"
         style="fill-rule:evenodd;stroke:#000000;stroke-width:0.999964;stroke-linejoin:bevel;stroke-miterlimit:10;stroke-dasharray:none"
         id="path5" /><path
         d="m 13.365,46.731 1.4701,0.52828 -0.40451,1.5979 -1.3353,0.93099 -0.93514,-0.39838 v -1.5979 z"
         style="display:inline;fill-rule:evenodd;stroke:#000000;stroke-width:0.999964;stroke-linejoin:bevel;stroke-miterlimit:10;stroke-dasharray:none"
         id="path6" /><path
         d="m 20.446,36.755 3.8754,1.7278 0.40016,2.6588 -4.1408,1.3337 -1.3396,-0.93533 -1.4701,-4.1224 z"
         style="display:inline;fill-rule:evenodd;stroke:#000000;stroke-width:0.999964;stroke-linejoin:bevel;stroke-miterlimit:10;stroke-dasharray:none"
         id="path7" /><path
         d="m 30.297,3.6289 c -1.2075,0 -2.2599,0.65852 -2.8262,1.6348 l -27.027,46.809 c -0.56625,0.9775 -0.61211,2.2213 -0.0059,3.2676 0.605,1.05 1.702,1.6328 2.832,1.6328 h 54.062 c 1.1275,0 2.227,-0.58281 2.832,-1.6328 0.60625,-1.0462 0.5601,-2.2901 -0.004,-3.2676 L 33.1249,5.2637 C 32.55865,4.28745 31.5055,3.6289 30.2968,3.6289 Z m 0.03515,5.4551 8.2871,14.369 -1.6055,6.3809 -3.0703,1.3301 -1.3398,4.9238 -3.8711,3.8574 -1.4707,5.4531 -3.6094,3.7285 -18.574,3.4551 z"
         id="path8"
         style="display:inline;stroke-width:0.999964;stroke-dasharray:none" /></g><g
       style="display:inline;fill-rule:evenodd"
       id="g3"
       transform="matrix(-0.75409226,0,0,-0.75409226,512.76842,512.77822)"
       inkscape:label="sign"><path
         d="M 46.019,601.088 7.048,533.588 301.529,23.532 h 77.942 l 294.481,510.056 -38.971,67.5"
         fill="#d61029"
         stroke="none"
         id="path2-3"
         style="fill:url(#swatch3)" /><circle
         cx="340.5"
         cy="46.032001"
         r="45"
         fill="#d61029"
         stroke="none"
         id="circle4"
         style="fill:url(#swatch3)" /><circle
         cx="634.98102"
         cy="556.08801"
         r="45"
         fill="#d61029"
         stroke="none"
         id="circle6"
         style="fill:#000014;fill-opacity:1" /><circle
         cx="46.019001"
         cy="556.08801"
         r="45"
         stroke="none"
         id="circle8"
         style="fill:url(#linearGradient3);fill-opacity:1;fill-rule:evenodd" /><path
         d="M 72,541.088 340.5,76.032 609,541.088"
         fill="#ffffff"
         stroke="none"
         id="path10"
         style="fill:url(#linearGradient4)" /></g><g
       id="g121"
       inkscape:label="shards"
       style="display:none"><path
         style="fill:url(#swatch3);fill-opacity:1;fill-rule:nonzero;stroke:none;stroke-width:0.598;stroke-dasharray:none;stroke-opacity:1"
         d="M 253.01233,440.19566 171.1554,294.79943 193.48002,283.92334 Z"
         id="path120" /><path
         style="fill:url(#swatch3);fill-opacity:1;fill-rule:nonzero;stroke:none;stroke-width:0.598;stroke-dasharray:none;stroke-opacity:1"
         d="m 253.01233,435.61625 c -2.2897,-5.72426 -51.51835,-154.55504 -51.51835,-154.55504 l 26.3316,-6.86911 z"
         id="path121" /><path
         style="display:inline;fill:url(#swatch3);fill-opacity:1;fill-rule:nonzero;stroke:none;stroke-width:0.598;stroke-dasharray:none;stroke-opacity:1"
         d="M 259.47645,440.09433 341.33338,294.6981 319.00876,283.82201 Z"
         id="path120-9" /><path
         style="display:inline;fill:url(#swatch3);fill-opacity:1;fill-rule:nonzero;stroke:none;stroke-width:0.598;stroke-dasharray:none;stroke-opacity:1"
         d="m 259.47645,435.51492 c 2.2897,-5.72426 51.51835,-154.55504 51.51835,-154.55504 l -26.3316,-6.86911 z"
         id="path121-2" /></g><g
       id="g112"
       inkscape:label="rocks"
       style="display:inline"
       transform="translate(14.571589,-62.334021)"><path
         d="m 297.3985,371.03256 -11.09472,13.09374 -7.67662,-6.97501 -0.29989,-10.63646 15.98195,-5.40828 z"
         style="display:inline;fill-rule:evenodd;stroke:#000000;stroke-width:2.4148;stroke-linejoin:bevel;stroke-miterlimit:10;stroke-dasharray:none"
         id="path2-6-1"
         inkscape:transform-center-x="-0.59945882"
         inkscape:transform-center-y="3.5595916" /><path
         d="m 197.00042,361.00715 6.69566,15.80212 -9.68449,3.71375 -9.63224,-4.52153 2.3672,-16.70534 z"
         style="display:inline;fill-rule:evenodd;stroke:#000000;stroke-width:2.4148;stroke-linejoin:bevel;stroke-miterlimit:10;stroke-dasharray:none"
         id="path2-6-1-3"
         inkscape:transform-center-x="-3.3649388"
         inkscape:transform-center-y="0.7425216" /><path
         d="m 291.80781,412.64827 -6.44269,4.88479 -13.30048,-1.98067 -3.16718,-12.60102 8.33767,-9.71797 7.74464,-0.50072 z"
         style="display:inline;fill-rule:evenodd;stroke:#000000;stroke-width:4.84059;stroke-linejoin:bevel;stroke-miterlimit:10;stroke-dasharray:none"
         id="path3-7-2"
         inkscape:transform-center-x="5.8496141"
         inkscape:transform-center-y="-9.2269924" /><path
         d="m 268.37448,431.29783 6.62278,0.55388 2.20756,6.03932 -6.62279,8.77302 -6.60463,-0.55388 -1.11275,-11.52489 z"
         style="display:inline;fill-rule:evenodd;stroke:#000000;stroke-width:4.1262;stroke-linejoin:bevel;stroke-miterlimit:10;stroke-dasharray:none"
         id="path4-5-7" /><path
         d="m 188.82873,326.21355 1.25966,4.55783 -0.83974,4.97606 -7.91019,3.31717 -3.31841,-3.7354 2.07235,-8.27983 z"
         style="display:inline;fill-rule:evenodd;stroke:#000000;stroke-width:3.11402;stroke-linejoin:bevel;stroke-miterlimit:10;stroke-dasharray:none"
         id="path5-0" /><path
         d="m 167.08903,369.89123 3.0965,0.22907 2.89083,1.61953 0.30172,5.62413 -3.04327,1.22566 -4.66088,-3.11219 z"
         style="display:inline;fill-rule:evenodd;stroke:#000000;stroke-width:2.04473;stroke-linejoin:bevel;stroke-miterlimit:10;stroke-dasharray:none"
         id="path5-0-2" /><path
         d="m 214.2155,413.11547 3.0965,0.22907 2.89083,1.61953 0.30172,5.62413 -3.04327,1.22566 -4.66088,-3.11219 z"
         style="display:inline;fill-rule:evenodd;stroke:#000000;stroke-width:2.04473;stroke-linejoin:bevel;stroke-miterlimit:10;stroke-dasharray:none"
         id="path5-0-2-6" /><path
         d="m 313.78904,342.39477 3.91211,1.40581 -1.07645,4.25219 -3.55338,2.47748 -2.48852,-1.06014 v -4.2522 z"
         style="display:inline;fill-rule:evenodd;stroke:#000000;stroke-width:2.66102;stroke-linejoin:bevel;stroke-miterlimit:10;stroke-dasharray:none"
         id="path6-9" /><path
         d="m 168.69865,346.26287 5.56546,1.99995 -1.53138,6.04928 -5.05514,3.52452 -3.54023,-1.50818 v -6.04928 z"
         style="display:inline;fill-rule:evenodd;stroke:#000000;stroke-width:3.78564;stroke-linejoin:bevel;stroke-miterlimit:10;stroke-dasharray:none"
         id="path6-9-3" /><path
         d="m 204.9486,446.04172 -3.1806,-13.45403 6.09772,-6.28992 11.63662,8.09277 0.22353,5.3186 -7.7756,11.95366 z"
         style="display:inline;fill-rule:evenodd;stroke:#000000;stroke-width:3.25807;stroke-linejoin:bevel;stroke-miterlimit:10;stroke-dasharray:none"
         id="path7-3"
         inkscape:transform-center-x="-15.041109"
         inkscape:transform-center-y="5.8556204" /><path
         d="m 153.64776,340.29428 -5.80279,-2.16744 -0.82324,-3.8379 5.91293,-2.31734 2.03638,1.24183 2.51443,5.8738 z"
         style="display:inline;fill-rule:evenodd;stroke:#000000;stroke-width:1.45981;stroke-linejoin:bevel;stroke-miterlimit:10;stroke-dasharray:none"
         id="path7-3-6"
         inkscape:transform-center-x="-5.7189818"
         inkscape:transform-center-y="-4.3852794" /><path
         d="m 318.47455,370.75168 -5.3416,5.47744 -4.18205,-1.66615 1.05318,-8.71358 2.34126,-1.58919 7.10082,1.04158 z"
         style="display:inline;fill:#000000;fill-rule:evenodd;stroke:#000000;stroke-width:1.81897;stroke-linejoin:bevel;stroke-miterlimit:10;stroke-dasharray:none"
         id="path7-3-2"
         inkscape:transform-center-x="0.52239105"
         inkscape:transform-center-y="-9.2150165" /><path
         d="m 196.27325,392.06977 12.34356,12.54056 -2.48278,10.87036 -18.00564,-1.12382 -3.75464,-5.64003 0.56936,-18.14126 z"
         style="display:inline;fill:#000000;fill-rule:evenodd;stroke:#000000;stroke-width:4.14686;stroke-linejoin:bevel;stroke-miterlimit:10;stroke-dasharray:none"
         id="path7-3-2-8"
         inkscape:transform-center-x="18.36375"
         inkscape:transform-center-y="3.0044146" /><path
         d="m 293.13743,337.98936 0.69625,2.51923 -0.46415,2.7504 -4.37217,1.83348 -1.83417,-2.06465 1.14544,-4.57648 z"
         style="display:inline;fill-rule:evenodd;stroke:#000000;stroke-width:1.7212;stroke-linejoin:bevel;stroke-miterlimit:10;stroke-dasharray:none"
         id="path5-0-5"
         inkscape:transform-center-x="0.3424629"
         inkscape:transform-center-y="-0.30406361" /><path
         d="m 213.6661,383.19071 0.69625,2.51923 -0.46415,2.7504 -4.37217,1.83348 -1.83417,-2.06465 1.14544,-4.57648 z"
         style="display:inline;fill-rule:evenodd;stroke:#000000;stroke-width:1.7212;stroke-linejoin:bevel;stroke-miterlimit:10;stroke-dasharray:none"
         id="path5-0-5-5"
         inkscape:transform-center-x="0.3424629"
         inkscape:transform-center-y="-0.30406361" /><path
         d="m 221.8804,459.19071 0.69625,2.51923 -0.46415,2.7504 -4.37217,1.83348 -1.83417,-2.06465 1.14544,-4.57648 z"
         style="display:inline;fill-rule:evenodd;stroke:#000000;stroke-width:1.7212;stroke-linejoin:bevel;stroke-miterlimit:10;stroke-dasharray:none"
         id="path5-0-5-8"
         inkscape:transform-center-x="0.3424629"
         inkscape:transform-center-y="-0.30406361" /></g><g
       style="display:inline;fill:#000000;stroke-width:0.99935;stroke-dasharray:none"
       id="g1"
       transform="matrix(-0.59838874,0,0,0.59838874,409.44333,123.23729)"
       inkscape:label="hammer"><path
         d="m 468.333,24.6 h -42.667 c -5.12,0 -8.533,3.413 -8.533,8.533 H 365.149 L 365.933,24.6 C 365.933,10.093 354.84,-1 340.333,-1 H 169.667 c -13.653,0 -25.6,11.093 -25.6,26.453 l 0.71,7.68 h -51.91 c 0,-5.12 -3.413,-8.533 -8.533,-8.533 H 41.667 c -18.773,0 -34.133,15.36 -34.133,34.133 0,18.773 15.36,34.133 34.133,34.133 h 42.667 c 5.12,0 8.533,-3.413 8.533,-8.533 h 56.64 l 9.067,98.133 c 2.051,17.095 13.97,31.441 30.04,36.47 l 11.773,65.93 c 2.208,11.038 10.133,18.889 20.48,20.845 V 357.4 c 0,8.603 3.232,16.483 8.533,22.503 v 96.964 c 0,1.707 0.853,3.413 1.707,5.12 l 17.067,25.6 c 1.706,1.706 4.266,3.413 6.826,3.413 3.413,0 5.973,-1.707 6.827,-3.413 l 17.067,-25.6 c 0.853,-1.707 1.707,-3.413 1.707,-5.12 v -96.964 c 5.301,-6.02 8.533,-13.9 8.533,-22.503 v -51.873 c 9.926,-2.219 17.48,-9.929 19.627,-20.661 l 11.681,-65.413 c 16.952,-4.492 29.568,-19.261 30.986,-36.987 l 9.018,-98.133 h 56.689 c 0,5.12 3.413,8.533 8.533,8.533 h 42.667 c 18.773,0 34.133,-15.36 34.133,-34.133 C 502.468,39.96 487.107,24.6 468.333,24.6 Z M 41.667,75.8 C 32.28,75.8 24.6,68.12 24.6,58.733 24.6,49.346 32.28,41.666 41.667,41.666 H 75.8 V 75.8 Z m 51.2,-8.533 V 50.2 h 53.486 l 1.577,17.067 z m 179.2,290.133 c 0,4.61 -1.859,8.801 -4.856,11.88 -0.387,0.262 -0.761,0.564 -1.118,0.92 -1.384,1.384 -4.453,3.33 -8.296,4.015 -0.071,0.012 -0.142,0.022 -0.213,0.033 -0.377,0.062 -0.763,0.11 -1.154,0.146 -0.473,0.04 -0.948,0.073 -1.431,0.073 -0.466,0 -0.924,-0.033 -1.381,-0.07 -4.362,-0.405 -7.39,-2.648 -9.712,-4.196 -0.391,-0.391 -0.804,-0.737 -1.231,-1.045 -2.928,-3.068 -4.742,-7.206 -4.742,-11.755 v -51.2 h 34.133 V 357.4 Z m -8.534,116.907 -8.533,12.8 -8.533,-12.8 V 390.68 c 5.12,1.707 11.947,1.707 17.067,0 v 83.627 z m 29.014,-192 c -0.853,4.267 -4.267,6.827 -8.533,6.827 h -3.414 -51.2 -2.56 c -4.267,0 -7.68,-2.56 -8.533,-6.827 l -11.093,-61.44 h 96.427 z M 335.213,180.76 c -1.48,11.103 -9.383,20.274 -20.363,22.513 -0.868,-0.214 -1.772,-0.326 -2.677,-0.326 h -0.853 c -0.853,0 -1.707,0 -2.56,0 H 200.387 c -0.853,0 -1.707,0 -2.56,0 h -0.853 c -0.661,0 -1.321,0.059 -1.967,0.173 -10.661,-2.385 -18.648,-10.858 -19.366,-22.36 L 166.02,77.197 c 0.15,-0.736 0.234,-1.492 0.234,-2.25 l -3.413,-34.133 c -0.079,-0.394 -0.187,-0.778 -0.308,-1.156 l -1.4,-15.058 c 0,-5.12 3.413,-8.533 8.533,-8.533 h 170.667 c 5.12,0 8.533,4.267 8.533,7.68 z M 362.52,67.267 363.126,55.155 363.581,50.2 h 53.552 V 67.267 Z M 468.333,75.8 H 434.2 V 41.667 h 34.133 c 9.387,0 17.067,7.68 17.067,17.067 0,9.387 -7.68,17.066 -17.067,17.066 z"
         id="path1"
         style="display:inline;fill:url(#swatch3);stroke-width:5.01346332;stroke-dasharray:none;stroke:none;stroke-opacity:1"
         inkscape:label="contour"
         transform="translate(1.0000021,1.0000021)" /><g
         id="g111"
         inkscape:label="fills"
         style="display:inline;fill:#000000;stroke-width:0.99935;stroke-dasharray:none"
         transform="translate(1.0000021,1.0000021)"><path
           style="display:inline;fill:url(#linearGradient100);fill-opacity:1;fill-rule:nonzero;stroke:none;stroke-width:0.598;stroke-dasharray:none;stroke-opacity:1"
           d="m 233.75258,299.7295 c 0,0 43.31,2.02383 43.91715,1.21429 0.60715,-0.80953 12.95252,-47.76243 12.95252,-47.76243 l -67.59598,-1.41668 z"
           id="path91"
           transform="matrix(-1.6711544,0,0,1.6711544,683.24304,-206.94854)" /><path
           style="display:inline;fill:url(#swatch3);fill-opacity:1;fill-rule:nonzero;stroke:#000000;stroke-width:0.598;stroke-dasharray:none;stroke-opacity:1"
           d="m 211.51144,245.28458 3.72077,4.57941 81.57072,-0.28622 10.58988,-8.30017 10.58988,-103.60913 c 0,0 -5.15183,-9.44503 -9.15882,-8.8726 -4.00698,0.57243 -107.32989,1.43106 -107.32989,1.43106 l -5.43805,7.44154 8.5864,99.02972 z"
           id="path92"
           transform="matrix(-1.6711544,0,0,1.6711544,683.24304,-206.94854)" /><path
           style="display:inline;fill:url(#swatch3);fill-opacity:1;fill-rule:nonzero;stroke:#000000;stroke-width:0.598;stroke-dasharray:none;stroke-opacity:1"
           d="m 322.27589,147.68593 34.91799,1.43107 14.31065,-4.2932 c 0,0 25.18675,2.2897 25.18675,4.2932 0,2.00349 4.57941,17.17278 1.43106,19.7487 -3.14834,2.57591 -18.60384,5.72426 -20.32112,5.72426 -1.71728,0 -18.60385,-2.00349 -18.60385,-2.00349 0,0 -0.28621,-4.86563 -6.29669,-4.57941 -6.01047,0.28621 -31.19722,0.28621 -31.19722,0.28621 h -5.43805 l 1.43107,-16.88657 z"
           id="path93"
           transform="matrix(-1.6711544,0,0,1.6711544,683.24304,-206.94854)" /><path
           style="display:inline;fill:url(#swatch3);fill-opacity:1;fill-rule:nonzero;stroke:#000000;stroke-width:0.598;stroke-dasharray:none;stroke-opacity:1"
           d="m 194.49024,168.38281 -0.80953,-19.83355 -38.65519,2.63098 -1.61907,-7.2858 h -29.34556 l -11.94061,10.72631 4.8572,16.19066 35.21467,4.85719 1.82145,-6.47626 z"
           id="path94"
           transform="matrix(-1.6711544,0,0,1.6711544,683.24304,-206.94854)" /><path
           style="display:inline;fill:url(#swatch3);fill-opacity:1;fill-rule:nonzero;stroke:#000000;stroke-width:0.598;stroke-dasharray:none;stroke-opacity:1"
           d="m 240.56206,304.38757 31.19723,-0.28621 -1.28796,40.06983 -11.16231,8.01396 c 0,0 -11.0192,-1.00175 -11.59163,-1.43106 -0.57243,-0.42932 -6.86911,-8.30018 -7.01222,-8.87261 -0.14311,-0.57243 -0.14311,-37.49391 -0.14311,-37.49391 z"
           id="path95"
           transform="matrix(-1.6711544,0,0,1.6711544,683.24304,-206.94854)" /><path
           style="display:inline;fill:url(#swatch3);fill-opacity:1;fill-rule:nonzero;stroke:#000000;stroke-width:0.598;stroke-dasharray:none;stroke-opacity:1"
           d="m 244.99837,362.34571 c -0.14311,-0.57242 0.57242,-7.87086 0.57242,-7.87086 l 20.75045,0.42932 0.42932,30.19548 v 23.61258 l -10.73299,13.88133 -10.73299,-13.45201 c 0,0 -0.57243,-28.4782 -0.57243,-29.76616 0,-1.28796 0.28622,-17.02968 0.28622,-17.02968 z"
           id="path96"
           transform="matrix(-1.6711544,0,0,1.6711544,683.24304,-206.94854)" /></g><g
         id="g110"
         style="display:inline;fill:#000000;stroke-width:0.99935;stroke-dasharray:none"
         inkscape:label="stripes"
         transform="translate(1.0000021,1.0000021)"><path
           d="m 263.533,169.667 h -17.067 c -5.12,0 -8.533,3.413 -8.533,8.533 0,5.12 3.413,8.533 8.533,8.533 h 17.067 c 5.12,0 8.533,-3.413 8.533,-8.533 0,-5.12 -3.413,-8.533 -8.533,-8.533 z"
           id="path2"
           style="fill:url(#linearGradient96);stroke-width:0.99935;stroke-dasharray:none" /><path
           d="m 280.6,135.533 h -51.2 c -5.12,0 -8.533,3.413 -8.533,8.533 0,5.12 3.413,8.533 8.533,8.533 h 51.2 c 5.12,0 8.533,-3.413 8.533,-8.533 0,-5.119 -3.413,-8.533 -8.533,-8.533 z"
           id="path3"
           style="fill:url(#linearGradient97);stroke-width:0.99935;stroke-dasharray:none" /><path
           d="m 297.667,101.4 h -85.333 c -5.12,0 -8.533,3.413 -8.533,8.533 0,5.12 3.413,8.533 8.533,8.533 h 85.333 c 5.12,0 8.533,-3.413 8.533,-8.533 0,-5.12 -3.413,-8.533 -8.533,-8.533 z"
           id="path4"
           style="fill:url(#linearGradient98);stroke-width:0.99935;stroke-dasharray:none" /></g></g></g></svg>
